<?xml version="1.0" encoding="UTF-8"?>
<!-- All Ears — app icon tile, light. Warm paper squircle, ink mark, amber earlobe. Export at 16/32/48/96/128/256/512/1024px. -->
<svg xmlns="http://www.w3.org/2000/svg" viewBox="0 0 100 100" width="512" height="512">
  <defs>
    <linearGradient id="tileLight" x1="0" y1="0" x2="0" y2="1">
      <stop offset="0" stop-color="#fdfbf6"/>
      <stop offset="1" stop-color="#ece5d8"/>
    </linearGradient>
    <clipPath id="sqClipLight" clipPathUnits="userSpaceOnUse">
      <path d="M100.00,50.00L99.98,61.86L99.93,66.13L99.85,69.31L99.73,71.92L99.57,74.18L99.38,76.19L99.16,78.01L98.90,79.67L98.60,81.20L98.27,82.63L97.90,83.96L97.50,85.20L97.06,86.37L96.58,87.47L96.06,88.51L95.51,89.48L94.91,90.40L94.27,91.27L93.59,92.09L92.86,92.86L92.09,93.59L91.27,94.27L90.40,94.91L89.48,95.51L88.51,96.06L87.47,96.58L86.37,97.06L85.20,97.50L83.96,97.90L82.63,98.27L81.20,98.60L79.67,98.90L78.01,99.16L76.19,99.38L74.18,99.57L71.92,99.73L69.31,99.85L66.13,99.93L61.86,99.98L50.00,100.00L38.14,99.98L33.87,99.93L30.69,99.85L28.08,99.73L25.82,99.57L23.81,99.38L21.99,99.16L20.33,98.90L18.80,98.60L17.37,98.27L16.04,97.90L14.80,97.50L13.63,97.06L12.53,96.58L11.49,96.06L10.52,95.51L9.60,94.91L8.73,94.27L7.91,93.59L7.14,92.86L6.41,92.09L5.73,91.27L5.09,90.40L4.49,89.48L3.94,88.51L3.42,87.47L2.94,86.37L2.50,85.20L2.10,83.96L1.73,82.63L1.40,81.20L1.10,79.67L0.84,78.01L0.62,76.19L0.43,74.18L0.27,71.92L0.15,69.31L0.07,66.13L0.02,61.86L0.00,50.00L0.02,38.14L0.07,33.87L0.15,30.69L0.27,28.08L0.43,25.82L0.62,23.81L0.84,21.99L1.10,20.33L1.40,18.80L1.73,17.37L2.10,16.04L2.50,14.80L2.94,13.63L3.42,12.53L3.94,11.49L4.49,10.52L5.09,9.60L5.73,8.73L6.41,7.91L7.14,7.14L7.91,6.41L8.73,5.73L9.60,5.09L10.52,4.49L11.49,3.94L12.53,3.42L13.63,2.94L14.80,2.50L16.04,2.10L17.37,1.73L18.80,1.40L20.33,1.10L21.99,0.84L23.81,0.62L25.82,0.43L28.08,0.27L30.69,0.15L33.87,0.07L38.14,0.02L50.00,0.00L61.86,0.02L66.13,0.07L69.31,0.15L71.92,0.27L74.18,0.43L76.19,0.62L78.01,0.84L79.67,1.10L81.20,1.40L82.63,1.73L83.96,2.10L85.20,2.50L86.37,2.94L87.47,3.42L88.51,3.94L89.48,4.49L90.40,5.09L91.27,5.73L92.09,6.41L92.86,7.14L93.59,7.91L94.27,8.73L94.91,9.60L95.51,10.52L96.06,11.49L96.58,12.53L97.06,13.63L97.50,14.80L97.90,16.04L98.27,17.37L98.60,18.80L98.90,20.33L99.16,21.99L99.38,23.81L99.57,25.82L99.73,28.08L99.85,30.69L99.93,33.87L99.98,38.14L100.00,50.00Z"/>
    </clipPath>
  </defs>
  <path d="M100.00,50.00L99.98,61.86L99.93,66.13L99.85,69.31L99.73,71.92L99.57,74.18L99.38,76.19L99.16,78.01L98.90,79.67L98.60,81.20L98.27,82.63L97.90,83.96L97.50,85.20L97.06,86.37L96.58,87.47L96.06,88.51L95.51,89.48L94.91,90.40L94.27,91.27L93.59,92.09L92.86,92.86L92.09,93.59L91.27,94.27L90.40,94.91L89.48,95.51L88.51,96.06L87.47,96.58L86.37,97.06L85.20,97.50L83.96,97.90L82.63,98.27L81.20,98.60L79.67,98.90L78.01,99.16L76.19,99.38L74.18,99.57L71.92,99.73L69.31,99.85L66.13,99.93L61.86,99.98L50.00,100.00L38.14,99.98L33.87,99.93L30.69,99.85L28.08,99.73L25.82,99.57L23.81,99.38L21.99,99.16L20.33,98.90L18.80,98.60L17.37,98.27L16.04,97.90L14.80,97.50L13.63,97.06L12.53,96.58L11.49,96.06L10.52,95.51L9.60,94.91L8.73,94.27L7.91,93.59L7.14,92.86L6.41,92.09L5.73,91.27L5.09,90.40L4.49,89.48L3.94,88.51L3.42,87.47L2.94,86.37L2.50,85.20L2.10,83.96L1.73,82.63L1.40,81.20L1.10,79.67L0.84,78.01L0.62,76.19L0.43,74.18L0.27,71.92L0.15,69.31L0.07,66.13L0.02,61.86L0.00,50.00L0.02,38.14L0.07,33.87L0.15,30.69L0.27,28.08L0.43,25.82L0.62,23.81L0.84,21.99L1.10,20.33L1.40,18.80L1.73,17.37L2.10,16.04L2.50,14.80L2.94,13.63L3.42,12.53L3.94,11.49L4.49,10.52L5.09,9.60L5.73,8.73L6.41,7.91L7.14,7.14L7.91,6.41L8.73,5.73L9.60,5.09L10.52,4.49L11.49,3.94L12.53,3.42L13.63,2.94L14.80,2.50L16.04,2.10L17.37,1.73L18.80,1.40L20.33,1.10L21.99,0.84L23.81,0.62L25.82,0.43L28.08,0.27L30.69,0.15L33.87,0.07L38.14,0.02L50.00,0.00L61.86,0.02L66.13,0.07L69.31,0.15L71.92,0.27L74.18,0.43L76.19,0.62L78.01,0.84L79.67,1.10L81.20,1.40L82.63,1.73L83.96,2.10L85.20,2.50L86.37,2.94L87.47,3.42L88.51,3.94L89.48,4.49L90.40,5.09L91.27,5.73L92.09,6.41L92.86,7.14L93.59,7.91L94.27,8.73L94.91,9.60L95.51,10.52L96.06,11.49L96.58,12.53L97.06,13.63L97.50,14.80L97.90,16.04L98.27,17.37L98.60,18.80L98.90,20.33L99.16,21.99L99.38,23.81L99.57,25.82L99.73,28.08L99.85,30.69L99.93,33.87L99.98,38.14L100.00,50.00Z" fill="url(#tileLight)"/>
  <g clip-path="url(#sqClipLight)">
    <g transform="translate(50,50) scale(0.74) translate(-50,-50)">
      <g transform="matrix(1 0 0 -1 0 100)">
        <path fill="none" stroke="#1C1B1A" stroke-width="12" stroke-linecap="round" stroke-linejoin="round"
          d="M62,33 C43,31 29,43 29,54 C29,68 43,79 62,81"/>
        <circle cx="61" cy="20" r="7" fill="#E0A03C"/>
      </g>
    </g>
  </g>
  <path d="M100.00,50.00L99.98,61.86L99.93,66.13L99.85,69.31L99.73,71.92L99.57,74.18L99.38,76.19L99.16,78.01L98.90,79.67L98.60,81.20L98.27,82.63L97.90,83.96L97.50,85.20L97.06,86.37L96.58,87.47L96.06,88.51L95.51,89.48L94.91,90.40L94.27,91.27L93.59,92.09L92.86,92.86L92.09,93.59L91.27,94.27L90.40,94.91L89.48,95.51L88.51,96.06L87.47,96.58L86.37,97.06L85.20,97.50L83.96,97.90L82.63,98.27L81.20,98.60L79.67,98.90L78.01,99.16L76.19,99.38L74.18,99.57L71.92,99.73L69.31,99.85L66.13,99.93L61.86,99.98L50.00,100.00L38.14,99.98L33.87,99.93L30.69,99.85L28.08,99.73L25.82,99.57L23.81,99.38L21.99,99.16L20.33,98.90L18.80,98.60L17.37,98.27L16.04,97.90L14.80,97.50L13.63,97.06L12.53,96.58L11.49,96.06L10.52,95.51L9.60,94.91L8.73,94.27L7.91,93.59L7.14,92.86L6.41,92.09L5.73,91.27L5.09,90.40L4.49,89.48L3.94,88.51L3.42,87.47L2.94,86.37L2.50,85.20L2.10,83.96L1.73,82.63L1.40,81.20L1.10,79.67L0.84,78.01L0.62,76.19L0.43,74.18L0.27,71.92L0.15,69.31L0.07,66.13L0.02,61.86L0.00,50.00L0.02,38.14L0.07,33.87L0.15,30.69L0.27,28.08L0.43,25.82L0.62,23.81L0.84,21.99L1.10,20.33L1.40,18.80L1.73,17.37L2.10,16.04L2.50,14.80L2.94,13.63L3.42,12.53L3.94,11.49L4.49,10.52L5.09,9.60L5.73,8.73L6.41,7.91L7.14,7.14L7.91,6.41L8.73,5.73L9.60,5.09L10.52,4.49L11.49,3.94L12.53,3.42L13.63,2.94L14.80,2.50L16.04,2.10L17.37,1.73L18.80,1.40L20.33,1.10L21.99,0.84L23.81,0.62L25.82,0.43L28.08,0.27L30.69,0.15L33.87,0.07L38.14,0.02L50.00,0.00L61.86,0.02L66.13,0.07L69.31,0.15L71.92,0.27L74.18,0.43L76.19,0.62L78.01,0.84L79.67,1.10L81.20,1.40L82.63,1.73L83.96,2.10L85.20,2.50L86.37,2.94L87.47,3.42L88.51,3.94L89.48,4.49L90.40,5.09L91.27,5.73L92.09,6.41L92.86,7.14L93.59,7.91L94.27,8.73L94.91,9.60L95.51,10.52L96.06,11.49L96.58,12.53L97.06,13.63L97.50,14.80L97.90,16.04L98.27,17.37L98.60,18.80L98.90,20.33L99.16,21.99L99.38,23.81L99.57,25.82L99.73,28.08L99.85,30.69L99.93,33.87L99.98,38.14L100.00,50.00Z" fill="none" stroke="rgba(0,0,0,.10)" stroke-width="1"/>
</svg>
